<?xml version="1.0" encoding="utf-8"?>
<svg xmlns="http://www.w3.org/2000/svg" xmlns:xlink="http://www.w3.org/1999/xlink" style="margin: auto; background: rgb(255, 255, 255); display: block; shape-rendering: auto;" width="224px" height="224px" viewBox="0 0 100 100" preserveAspectRatio="xMidYMid">
<g transform="rotate(0 50 50)">
  <rect x="47" y="23" rx="3" ry="6" width="6" height="12" fill="#3e87d5">
    <animate attributeName="opacity" values="1;0" keyTimes="0;1" dur="1.2987012987012987s" begin="-1.2223071046600458s" repeatCount="indefinite"></animate>
  </rect>
</g><g transform="rotate(21.176470588235293 50 50)">
  <rect x="47" y="23" rx="3" ry="6" width="6" height="12" fill="#3e87d5">
    <animate attributeName="opacity" values="1;0" keyTimes="0;1" dur="1.2987012987012987s" begin="-1.145912910618793s" repeatCount="indefinite"></animate>
  </rect>
</g><g transform="rotate(42.35294117647059 50 50)">
  <rect x="47" y="23" rx="3" ry="6" width="6" height="12" fill="#3e87d5">
    <animate attributeName="opacity" values="1;0" keyTimes="0;1" dur="1.2987012987012987s" begin="-1.0695187165775402s" repeatCount="indefinite"></animate>
  </rect>
</g><g transform="rotate(63.529411764705884 50 50)">
  <rect x="47" y="23" rx="3" ry="6" width="6" height="12" fill="#3e87d5">
    <animate attributeName="opacity" values="1;0" keyTimes="0;1" dur="1.2987012987012987s" begin="-0.9931245225362872s" repeatCount="indefinite"></animate>
  </rect>
</g><g transform="rotate(84.70588235294117 50 50)">
  <rect x="47" y="23" rx="3" ry="6" width="6" height="12" fill="#3e87d5">
    <animate attributeName="opacity" values="1;0" keyTimes="0;1" dur="1.2987012987012987s" begin="-0.9167303284950344s" repeatCount="indefinite"></animate>
  </rect>
</g><g transform="rotate(105.88235294117646 50 50)">
  <rect x="47" y="23" rx="3" ry="6" width="6" height="12" fill="#3e87d5">
    <animate attributeName="opacity" values="1;0" keyTimes="0;1" dur="1.2987012987012987s" begin="-0.8403361344537815s" repeatCount="indefinite"></animate>
  </rect>
</g><g transform="rotate(127.05882352941177 50 50)">
  <rect x="47" y="23" rx="3" ry="6" width="6" height="12" fill="#3e87d5">
    <animate attributeName="opacity" values="1;0" keyTimes="0;1" dur="1.2987012987012987s" begin="-0.7639419404125286s" repeatCount="indefinite"></animate>
  </rect>
</g><g transform="rotate(148.23529411764707 50 50)">
  <rect x="47" y="23" rx="3" ry="6" width="6" height="12" fill="#3e87d5">
    <animate attributeName="opacity" values="1;0" keyTimes="0;1" dur="1.2987012987012987s" begin="-0.6875477463712758s" repeatCount="indefinite"></animate>
  </rect>
</g><g transform="rotate(169.41176470588235 50 50)">
  <rect x="47" y="23" rx="3" ry="6" width="6" height="12" fill="#3e87d5">
    <animate attributeName="opacity" values="1;0" keyTimes="0;1" dur="1.2987012987012987s" begin="-0.6111535523300229s" repeatCount="indefinite"></animate>
  </rect>
</g><g transform="rotate(190.58823529411765 50 50)">
  <rect x="47" y="23" rx="3" ry="6" width="6" height="12" fill="#3e87d5">
    <animate attributeName="opacity" values="1;0" keyTimes="0;1" dur="1.2987012987012987s" begin="-0.5347593582887701s" repeatCount="indefinite"></animate>
  </rect>
</g><g transform="rotate(211.76470588235293 50 50)">
  <rect x="47" y="23" rx="3" ry="6" width="6" height="12" fill="#3e87d5">
    <animate attributeName="opacity" values="1;0" keyTimes="0;1" dur="1.2987012987012987s" begin="-0.4583651642475172s" repeatCount="indefinite"></animate>
  </rect>
</g><g transform="rotate(232.94117647058823 50 50)">
  <rect x="47" y="23" rx="3" ry="6" width="6" height="12" fill="#3e87d5">
    <animate attributeName="opacity" values="1;0" keyTimes="0;1" dur="1.2987012987012987s" begin="-0.3819709702062643s" repeatCount="indefinite"></animate>
  </rect>
</g><g transform="rotate(254.11764705882354 50 50)">
  <rect x="47" y="23" rx="3" ry="6" width="6" height="12" fill="#3e87d5">
    <animate attributeName="opacity" values="1;0" keyTimes="0;1" dur="1.2987012987012987s" begin="-0.30557677616501144s" repeatCount="indefinite"></animate>
  </rect>
</g><g transform="rotate(275.29411764705884 50 50)">
  <rect x="47" y="23" rx="3" ry="6" width="6" height="12" fill="#3e87d5">
    <animate attributeName="opacity" values="1;0" keyTimes="0;1" dur="1.2987012987012987s" begin="-0.2291825821237586s" repeatCount="indefinite"></animate>
  </rect>
</g><g transform="rotate(296.47058823529414 50 50)">
  <rect x="47" y="23" rx="3" ry="6" width="6" height="12" fill="#3e87d5">
    <animate attributeName="opacity" values="1;0" keyTimes="0;1" dur="1.2987012987012987s" begin="-0.15278838808250572s" repeatCount="indefinite"></animate>
  </rect>
</g><g transform="rotate(317.6470588235294 50 50)">
  <rect x="47" y="23" rx="3" ry="6" width="6" height="12" fill="#3e87d5">
    <animate attributeName="opacity" values="1;0" keyTimes="0;1" dur="1.2987012987012987s" begin="-0.07639419404125286s" repeatCount="indefinite"></animate>
  </rect>
</g><g transform="rotate(338.8235294117647 50 50)">
  <rect x="47" y="23" rx="3" ry="6" width="6" height="12" fill="#3e87d5">
    <animate attributeName="opacity" values="1;0" keyTimes="0;1" dur="1.2987012987012987s" begin="0s" repeatCount="indefinite"></animate>
  </rect>
</g>
<!-- [ldio] generated by https://loading.io/ --></svg>